<svg xmlns="http://www.w3.org/2000/svg" version="1.1" xmlns:xlink="http://www.w3.org/1999/xlink" xmlns:svgjs="http://svgjs.dev/svgjs" width="128" height="128" viewBox="0 0 128 128"><g transform="matrix(0.8046875,0,0,0.8046875,12.267603910868282,15.656200451046857)"><svg viewBox="0 0 96 90" data-background-color="#162836" preserveAspectRatio="xMidYMid meet" height="120" width="128" xmlns="http://www.w3.org/2000/svg" xmlns:xlink="http://www.w3.org/1999/xlink"><g id="tight-bounds" transform="matrix(1,0,0,1,0.21660218016160115,0.0582986087330255)"><svg viewBox="0 0 95.481 89.79760714285715" height="89.79760714285715" width="95.481"><g><svg viewBox="0 0 95.481 89.79760714285715" height="89.79760714285715" width="95.481"><g><svg viewBox="0 0 95.481 89.79760714285715" height="89.79760714285715" width="95.481"><g id="textblocktransform"><svg viewBox="0 0 95.481 89.79760714285715" height="89.79760714285715" width="95.481" id="textblock"><g><svg viewBox="0 0 95.481 89.79760714285715" height="89.79760714285715" width="95.481"><g><svg viewBox="0 0 95.481 89.79760714285715" height="89.79760714285715" width="95.481"><g><svg xmlns="http://www.w3.org/2000/svg" data-name="Layer 1 copy 2" viewBox="8 10 84 79" x="0" y="0" height="89.79760714285715" width="95.481" class="icon-icon-0" data-fill-palette-color="accent" id="icon-0"><path d="M50 36A8 8 0 1 1 58 28 8.01 8.01 0 0 1 50 36M50 24A4 4 0 1 0 54 28 4.004 4.004 0 0 0 50 24" fill="#4c8bfa" data-fill-palette-color="accent"></path><path d="M16 53A8 8 0 1 1 24 45 8.01 8.01 0 0 1 16 53M16 41A4 4 0 1 0 20 45 4.004 4.004 0 0 0 16 41" fill="#4c8bfa" data-fill-palette-color="accent"></path><path d="M79.143 21.513A5.97 5.97 0 0 1 78 18C78 17.89 78.01 17.783 78.016 17.675L54.856 24.487A5.97 5.97 0 0 1 56 28C56 28.11 55.99 28.216 55.984 28.325Z" fill="#4c8bfa" data-fill-palette-color="accent"></path><path d="M44.05 28.739L20.161 40.683A5.98 5.98 0 0 1 21.95 44.261L45.839 32.317A5.98 5.98 0 0 1 44.05 28.739" fill="#4c8bfa" data-fill-palette-color="accent"></path><path d="M84 26A8 8 0 1 1 92 18 8.01 8.01 0 0 1 84 26M84 14A4 4 0 1 0 88 18 4.004 4.004 0 0 0 84 14" fill="#4c8bfa" data-fill-palette-color="accent"></path><path d="M50 57A8 8 0 1 1 58 49 8.01 8.01 0 0 1 50 57M50 45A4 4 0 1 0 54 49 4.004 4.004 0 0 0 50 45" fill="#4c8bfa" data-fill-palette-color="accent"></path><path d="M16 71A8 8 0 1 1 24 63 8.01 8.01 0 0 1 16 71M16 59A4 4 0 1 0 20 63 4.004 4.004 0 0 0 16 59" fill="#4c8bfa" data-fill-palette-color="accent"></path><path d="M44.015 49.301L20.463 59A5.97 5.97 0 0 1 21.985 62.7L45.537 53A5.97 5.97 0 0 1 44.015 49.302" fill="#4c8bfa" data-fill-palette-color="accent"></path><path d="M78.349 51A5.9 5.9 0 0 1 78.349 47H55.65A5.9 5.9 0 0 1 55.651 51z" fill="#4c8bfa" data-fill-palette-color="accent"></path><path d="M84 57A8 8 0 1 1 92 49 8.01 8.01 0 0 1 84 57M84 45A4 4 0 1 0 88 49 4.004 4.004 0 0 0 84 45" fill="#4c8bfa" data-fill-palette-color="accent"></path><path d="M50 78A8 8 0 1 1 58 70 8.01 8.01 0 0 1 50 78M50 66A4 4 0 1 0 54 70 4.004 4.004 0 0 0 50 66" fill="#4c8bfa" data-fill-palette-color="accent"></path><path d="M16 89A8 8 0 1 1 24 81 8.01 8.01 0 0 1 16 89M16 77A4 4 0 1 0 20 81 4.004 4.004 0 0 0 16 77" fill="#4c8bfa" data-fill-palette-color="accent"></path><path d="M78.016 80.325C78.011 80.217 78 80.11 78 80A5.97 5.97 0 0 1 79.143 76.487L55.983 69.675C55.99 69.783 56 69.89 56 70A5.97 5.97 0 0 1 54.857 73.513Z" fill="#4c8bfa" data-fill-palette-color="accent"></path><path d="M45.24 73.642A5.97 5.97 0 0 1 44 70C44 69.945 44.007 69.891 44.008 69.836L20.76 77.357A5.97 5.97 0 0 1 22 81C22 81.055 21.993 81.109 21.992 81.164Z" fill="#4c8bfa" data-fill-palette-color="accent"></path><path d="M84 88A8 8 0 1 1 92 80 8.01 8.01 0 0 1 84 88M84 76A4 4 0 1 0 88 80 4.004 4.004 0 0 0 84 76" fill="#4c8bfa" data-fill-palette-color="accent"></path></svg></g></svg></g></svg></g></svg></g></svg></g></svg></g><defs></defs></svg><rect width="95.481" height="89.79760714285715" fill="none" stroke="none" visibility="hidden"></rect></g></svg></g></svg>