<?xml version="1.0" encoding="utf-8"?>
<!-- Generator: Adobe Illustrator 27.5.0, SVG Export Plug-In . SVG Version: 6.00 Build 0)  -->
<svg version="1.1" xmlns="http://www.w3.org/2000/svg" xmlns:xlink="http://www.w3.org/1999/xlink" x="0px" y="0px"
	 viewBox="0 0 500 500" style="enable-background:new 0 0 500 500;" xml:space="preserve">
<g id="Background_Complete">
	<g>
		<rect y="382.398" style="fill:#EBEBEB;" width="500" height="0.25"/>
		<rect x="416.779" y="398.494" style="fill:#EBEBEB;" width="33.122" height="0.25"/>
		<rect x="322.527" y="401.208" style="fill:#EBEBEB;" width="8.693" height="0.25"/>
		<rect x="396.586" y="389.208" style="fill:#EBEBEB;" width="19.192" height="0.25"/>
		<rect x="52.459" y="390.888" style="fill:#EBEBEB;" width="43.193" height="0.25"/>
		<rect x="104.556" y="390.888" style="fill:#EBEBEB;" width="6.333" height="0.25"/>
		<rect x="131.471" y="395.111" style="fill:#EBEBEB;" width="93.676" height="0.25"/>
		<path style="fill:#EBEBEB;" d="M237.014,337.8H43.915c-3.147,0-5.708-2.561-5.708-5.708V60.66c0-3.147,2.561-5.708,5.708-5.708
			h193.099c3.146,0,5.707,2.561,5.707,5.708v271.432C242.721,335.239,240.16,337.8,237.014,337.8z M43.915,55.203
			c-3.01,0-5.458,2.448-5.458,5.458v271.432c0,3.01,2.448,5.458,5.458,5.458h193.099c3.009,0,5.457-2.448,5.457-5.458V60.66
			c0-3.009-2.448-5.458-5.457-5.458H43.915z"/>
		<path style="fill:#EBEBEB;" d="M453.31,337.8H260.212c-3.147,0-5.707-2.561-5.707-5.708V60.66c0-3.147,2.561-5.708,5.707-5.708
			H453.31c3.148,0,5.708,2.561,5.708,5.708v271.432C459.019,335.239,456.458,337.8,453.31,337.8z M260.212,55.203
			c-3.009,0-5.457,2.448-5.457,5.458v271.432c0,3.01,2.448,5.458,5.457,5.458H453.31c3.01,0,5.458-2.448,5.458-5.458V60.66
			c0-3.009-2.448-5.458-5.458-5.458H260.212z"/>
	</g>
	<g>
		<g>
			<rect x="277.768" y="100.219" style="fill:#E6E6E6;" width="150.752" height="133.77"/>
			<rect x="281.543" y="103.886" style="fill:#F0F0F0;" width="143.009" height="126.508"/>
			<polygon style="fill:#FFFFFF;" points="315.106,103.886 281.543,230.12 281.543,170.803 299.263,103.886 			"/>
			<polygon style="fill:#FFFFFF;" points="326.993,103.886 293.135,230.395 287.732,230.395 321.589,103.886 			"/>
			<polygon style="fill:#FFFFFF;" points="424.552,183.714 424.552,203.929 417.702,230.395 412.298,230.395 			"/>
			<rect x="329.013" y="101.612" style="fill:#E6E6E6;" width="2.409" height="131.608"/>
			<rect x="375.699" y="101.612" style="fill:#E6E6E6;" width="2.409" height="131.608"/>
		</g>
		<g>
			
				<rect x="67.568" y="122.072" transform="matrix(-1 -1.224647e-16 1.224647e-16 -1 231.1137 504.511)" style="fill:#F5F5F5;" width="95.978" height="260.366"/>
			<g>
				
					<rect x="72.822" y="127.789" transform="matrix(-1 -1.224647e-16 1.224647e-16 -1 231.1137 298.0493)" style="fill:#EBEBEB;" width="85.469" height="42.471"/>
				
					<rect x="121.173" y="143.829" transform="matrix(-1 -1.224647e-16 1.224647e-16 -1 268.7775 314.0893)" style="fill:#F0F0F0;" width="26.431" height="26.431"/>
				
					<rect x="92.868" y="151.448" transform="matrix(-1 -1.224647e-16 1.224647e-16 -1 204.549 321.708)" style="fill:#F0F0F0;" width="18.812" height="18.812"/>
			</g>
			<g>
				
					<rect x="72.822" y="174.716" transform="matrix(-1 -1.224647e-16 1.224647e-16 -1 231.1137 391.9028)" style="fill:#EBEBEB;" width="85.469" height="42.471"/>
				
					<rect x="134.88" y="190.756" transform="matrix(-1 -1.224647e-16 1.224647e-16 -1 282.4848 407.9427)" style="fill:#F0F0F0;" width="12.724" height="26.431"/>
				
					<rect x="92.868" y="206.355" transform="matrix(-1 -1.224647e-16 1.224647e-16 -1 214.0415 423.5419)" style="fill:#F0F0F0;" width="28.305" height="10.832"/>
				
					<rect x="99.068" y="190.191" transform="matrix(-1 -1.224647e-16 1.224647e-16 -1 225.618 396.5463)" style="fill:#F0F0F0;" width="27.482" height="16.164"/>
			</g>
			<g>
				
					<rect x="72.822" y="221.643" transform="matrix(-1 -1.224647e-16 1.224647e-16 -1 231.1137 485.7564)" style="fill:#EBEBEB;" width="85.469" height="42.471"/>
				
					<rect x="121.173" y="237.683" transform="matrix(-1 -1.224647e-16 1.224647e-16 -1 247.723 501.7963)" style="fill:#F0F0F0;" width="5.377" height="26.431"/>
				
					<rect x="78.679" y="228.343" transform="matrix(-1 -1.224647e-16 1.224647e-16 -1 190.3593 492.457)" style="fill:#F0F0F0;" width="33.002" height="35.77"/>
			</g>
			<g>
				
					<rect x="72.822" y="268.57" transform="matrix(-1 -1.224647e-16 1.224647e-16 -1 231.1137 579.6101)" style="fill:#EBEBEB;" width="85.469" height="42.471"/>
				
					<rect x="121.173" y="284.609" transform="matrix(-1 -1.224647e-16 1.224647e-16 -1 268.7775 595.65)" style="fill:#F0F0F0;" width="26.431" height="26.431"/>
				
					<rect x="92.868" y="292.228" transform="matrix(-1 -1.224647e-16 1.224647e-16 -1 204.549 603.2686)" style="fill:#F0F0F0;" width="18.812" height="18.812"/>
			</g>
			<g>
				
					<rect x="72.822" y="315.496" transform="matrix(-1 -1.224647e-16 1.224647e-16 -1 231.1137 673.4635)" style="fill:#EBEBEB;" width="85.469" height="42.471"/>
				
					<rect x="121.173" y="331.536" transform="matrix(-1 -1.224647e-16 1.224647e-16 -1 268.7775 689.5035)" style="fill:#F0F0F0;" width="26.431" height="26.431"/>
				
					<rect x="92.868" y="339.155" transform="matrix(-1 -1.224647e-16 1.224647e-16 -1 204.549 697.1222)" style="fill:#F0F0F0;" width="18.812" height="18.812"/>
			</g>
			
				<rect x="121.173" y="108.978" transform="matrix(-1 -1.224647e-16 1.224647e-16 -1 271.2959 231.0498)" style="fill:#F0F0F0;" width="28.949" height="13.095"/>
			
				<rect x="95.18" y="115.525" transform="matrix(-1 -1.224647e-16 1.224647e-16 -1 205.2587 237.5972)" style="fill:#F0F0F0;" width="14.899" height="6.547"/>
		</g>
		<g>
			<g>
				<polygon style="fill:#F5F5F5;" points="186.609,165.343 235.56,165.343 234.81,158.726 185.859,158.726 				"/>
				<polygon style="fill:#F5F5F5;" points="190.114,196.279 239.064,196.279 238.315,189.662 189.364,189.662 				"/>
				<polygon style="fill:#F5F5F5;" points="193.618,227.216 242.569,227.216 241.819,220.599 192.869,220.599 				"/>
				<polygon style="fill:#F5F5F5;" points="197.123,258.152 246.074,258.152 245.324,251.535 196.374,251.535 				"/>
				<polygon style="fill:#F5F5F5;" points="200.628,289.089 249.579,289.089 248.829,282.472 199.878,282.472 				"/>
				<polygon style="fill:#F5F5F5;" points="204.133,320.025 253.083,320.025 252.333,313.408 203.383,313.408 				"/>
				<polygon style="fill:#F5F5F5;" points="207.637,350.962 256.588,350.962 255.838,344.345 206.888,344.345 				"/>
			</g>
			<g>
				<polygon style="fill:#EBEBEB;" points="256.785,382.439 264.45,382.439 237.614,145.557 229.949,145.557 				"/>
				<polygon style="fill:#EBEBEB;" points="206.907,382.439 214.572,382.439 187.736,145.557 180.071,145.557 				"/>
			</g>
		</g>
		<g>
			<rect x="333.971" y="307.896" style="fill:#EBEBEB;" width="83.122" height="74.542"/>
			<rect x="333.971" y="307.896" style="fill:#E0E0E0;" width="28.929" height="74.542"/>
		</g>
		<g>
			<rect x="350.513" y="248.755" style="fill:#F5F5F5;" width="83.122" height="60.678"/>
			<rect x="350.513" y="248.755" style="fill:#EBEBEB;" width="28.929" height="60.678"/>
		</g>
		<g>
			<rect x="333.97" y="219.055" style="fill:#FAFAFA;" width="80.155" height="29.699"/>
			<rect x="333.97" y="219.055" style="fill:#F0F0F0;" width="27.896" height="29.699"/>
		</g>
	</g>
</g>
<g id="Background_Simple" style="display:none;">
	<g style="display:inline;">
		<path style="fill:#407BFF;" d="M294.401,225.328c-66.384-17.825-89.562-160.248-187.84-82.251
			c-69.724,55.335-27.438,189.786,59.913,173.903c52.871-9.614,44.717-10.567,89.435,14.92c45.317,25.828,95.25,38.724,143.843-7.37
			c25.147-23.854,35.131-81.864,10.822-111.815C380.172,175.258,334.955,236.218,294.401,225.328z"/>
		<path style="opacity:0.9;fill:#FFFFFF;" d="M294.401,225.328c-66.384-17.825-89.562-160.248-187.84-82.251
			c-69.724,55.335-27.438,189.786,59.913,173.903c52.871-9.614,44.717-10.567,89.435,14.92c45.317,25.828,95.25,38.724,143.843-7.37
			c25.147-23.854,35.131-81.864,10.822-111.815C380.172,175.258,334.955,236.218,294.401,225.328z"/>
	</g>
</g>
<g id="Shadow_1_">
	<ellipse id="_x3C_Path_x3E__359_" style="fill:#F5F5F5;" cx="250" cy="416.238" rx="193.889" ry="11.323"/>
</g>
<g id="Speech_bubble">
	<g>
		<g>
			<path style="fill:#407BFF;" d="M307.455,119.674l28.728,0c4.885,0,8.846,3.961,8.846,8.846v25.002
				c0,4.885-3.961,8.846-8.846,8.846h-6.359l1.001,7.894l-7.004-7.894h-16.366c-4.885,0-8.846-3.96-8.846-8.846V128.52
				C298.609,123.634,302.569,119.674,307.455,119.674z"/>
			<path style="opacity:0.7;fill:#FFFFFF;" d="M307.455,119.674l28.728,0c4.885,0,8.846,3.961,8.846,8.846v25.002
				c0,4.885-3.961,8.846-8.846,8.846h-6.359l1.001,7.894l-7.004-7.894h-16.366c-4.885,0-8.846-3.96-8.846-8.846V128.52
				C298.609,123.634,302.569,119.674,307.455,119.674z"/>
		</g>
		<path style="fill:#407BFF;" d="M321.819,135.955c-5.77-6.001-12.238-3.528-12.238,2.316c0,5.844,12.238,13.925,12.238,13.925
			s12.238-8.081,12.238-13.925C334.057,132.427,327.589,129.954,321.819,135.955z"/>
	</g>
</g>
<g id="Character_2">
	<g>
		<g>
			<g>
				<path style="fill:#EEC1BB;" d="M296.834,230.921l-7.163-3.279l-0.755,7.532c0,0,7.211,2.001,8.271-0.086L296.834,230.921z"/>
				<polygon style="fill:#EEC1BB;" points="283.228,230.501 284.063,235.873 288.915,235.174 289.671,227.642 				"/>
			</g>
			<g>
				<path style="fill:#263238;" d="M337.667,214.825c0,0-12.389,11.35-15.697,13.04c-3.349,1.71-26.482,2.086-26.482,2.086
					l0.86,6.674c0,0,21.479,2.468,28.156,0.718c6.517-1.709,17.399-10.823,17.399-10.823L337.667,214.825z"/>
				<path style="opacity:0.2;fill:#FFFFFF;" d="M341.898,226.521c0,0-0.248,0.211-0.699,0.575c-1.034,0.837-3.142,2.493-5.644,4.25
					c-3.505,2.48-7.822,5.148-11.049,5.998c-6.681,1.747-28.159-0.716-28.159-0.716l-0.859-6.675c0,0,23.129-0.377,26.485-2.091
					c3.306-1.683,15.691-13.037,15.691-13.037l2.713,7.49l0.932,2.569L341.898,226.521z"/>
				<path style="opacity:0.2;" d="M341.31,224.884c0.037,0.736-0.009,1.473-0.111,2.212c-1.034,0.837-3.142,2.493-5.644,4.25
					c0.621-4.038,3.794-7.874,4.823-9.03c0.203-0.227,0.323-0.35,0.323-0.35C341.079,222.874,341.263,223.869,341.31,224.884z"/>
			</g>
		</g>
		<path style="fill:#EEC1BB;" d="M381.114,259.384c0,0-0.454,7.76-4.246,21.352c-1.91,6.842-4.663,15.168-8.641,24.717
			c-1.891,4.552-4.061,9.373-6.546,14.454c-1.122,2.309-2.318,4.663-3.579,7.074c-1.456,41.164-24.55,83.014-24.55,83.014
			c-1.279,0.658-5.748-0.065-5.72-1.363c3.421-5.433,10.152-58.177,14.491-83.19c0.269-3.402,0.658-7.046,1.14-10.81
			c1.27-10.096,3.143-21.083,4.969-30.743c2.865-15.214,5.6-27.146,5.6-27.146l7.612,0.742L381.114,259.384z"/>
		<path style="fill:#EEC1BB;" d="M390.19,316.365h-0.009c-0.612,4.422-1.4,9.151-2.373,14.204
			c8.251,27.535-8.715,81.262-8.715,81.262c-2.874,0.565-5.415,0.195-6.703-0.77c3.198-16.188,0.899-58.279-1.585-83.431
			c-0.223-2.281-0.501-4.793-0.807-7.473c-0.51-4.534-1.122-9.54-1.771-14.704c-1.094-8.65-2.327-17.754-3.44-25.82
			c-1.354-9.753-2.54-18.005-3.143-22.149c-0.26-1.827-0.408-2.856-0.408-2.856l23.827,2.577c0,0,6.054,6.796,6.972,28.008
			C392.379,293.335,391.98,303.58,390.19,316.365z"/>
		<path style="opacity:0.2;" d="M390.19,316.365h-0.009c-7.5,2.457-14.241,3.56-20.183,3.792c-0.51-4.534-1.122-9.54-1.771-14.704
			c-1.891,4.552-4.061,9.373-6.546,14.454c-8.186-0.816-14.305-3.217-18.218-5.275c1.27-10.096,3.143-21.083,4.969-30.743
			c2.225-1.335,4.895-2.457,8.094-3.263c2.503-0.63,5.294-0.955,8.261-0.992c3.829-0.056,7.945,0.343,12.08,1.103
			c5.21,0.964,10.449,2.512,15.168,4.478C392.379,293.335,391.98,303.58,390.19,316.365z"/>
		<g>
			<path style="fill:#263238;" d="M379.69,418.861l-1.328-0.002l-0.369-1.639l-4.394,1.984h-11.135c0,0-1.771-1.78,3.532-3.199
				c0.241-0.065,0.492-0.158,0.751-0.287c2.828-1.326,6.852-5.804,6.852-5.804h6.11c0,0,0.213,0.306,0.501,0.881
				C380.876,412.14,382.029,414.961,379.69,418.861z"/>
			<path style="fill:#FFC2BC;" d="M380.209,410.795c0,0.009,0,0.019,0,0.019c-0.807-0.899-4.478,3.05-7.167,4.395
				c-2.401,1.196-5.099,1.724-6.295,0.51c2.828-1.326,7.274-7.115,7.274-7.115h4.913
				C378.935,408.603,379.922,410.22,380.209,410.795z"/>
		</g>
		<g>
			<path style="fill:#263238;" d="M333.304,418.861l-1.328-0.002l-0.369-1.639l-4.394,1.984h-11.135c0,0-1.771-1.78,3.532-3.199
				c0.241-0.065,0.491-0.158,0.751-0.287c2.828-1.326,6.852-5.804,6.852-5.804h6.11c0,0,0.213,0.306,0.501,0.881
				C334.491,412.14,335.644,414.961,333.304,418.861z"/>
			<path style="fill:#FFC2BC;" d="M333.824,410.795c0,0.009,0,0.019,0,0.019c-0.807-0.899-4.478,3.05-7.167,4.395
				c-2.401,1.196-5.099,1.724-6.295,0.51c2.828-1.326,7.274-7.115,7.274-7.115h4.913C332.55,408.603,333.536,410.22,333.824,410.795
				z"/>
		</g>
		<path style="fill:#263238;" d="M353.602,254.632h31.632l0.853,4.073c0,0,11.618,16.087,5.729,56.187c0,0-25.45,2.934-49.412-2.201
			c0,0,5.379-41.201,11.003-54.649L353.602,254.632z"/>
		<path style="opacity:0.6;fill:#FFFFFF;enable-background:new    ;" d="M365.364,249.79c0,0.34-0.276,0.617-0.617,0.617
			c-0.341,0-0.617-0.276-0.617-0.617c0-0.341,0.276-0.617,0.617-0.617C365.088,249.174,365.364,249.45,365.364,249.79z"/>
		<path style="fill:#263238;" d="M337.109,193.417c1.762,3.301,2.545,8.104,2.545,8.104s17.035-2.861,20.05-7.125
			c3.015-4.264-0.869-22.763-10.24-21.715C340.094,173.728,331.57,183.039,337.109,193.417z"/>
		<g>
			<path style="fill:#407BFF;" d="M362.702,204.216c0,0-14.251,13.659-15.201,5.565c0,0-6.239,1.895-9.545,5.68
				c0,0,0.759,10.925,11.768,37.476l-1.59,11.754l10.934,1.883l3.284-9.614l7.15,7.83l16.648-10.867l-6.697-9.078
				c0,0-5.587-23.954-3.661-36.307C375.792,208.538,372.506,201.017,362.702,204.216z"/>
			<path style="opacity:0.7;fill:#FFFFFF;" d="M362.702,204.216c0,0-14.251,13.659-15.201,5.565c0,0-6.239,1.895-9.545,5.68
				c0,0,1.224,11.664,11.768,37.476l-1.59,11.754l10.934,1.883l3.284-9.614l7.15,7.83l16.648-10.867l-6.697-9.078
				c0,0-5.587-23.954-3.661-36.307C375.792,208.538,372.506,201.017,362.702,204.216z"/>
		</g>
		<path style="fill:#EEC1BB;" d="M357.083,190.014c0.187,4.675,1.235,13.02,4.939,15.016c0,0,4.789,1.859-6.693,5.086
			c-0.245,2.679-2.396,8.917-2.396,8.917s-3.245-4.254-2.997-6.228c-7.514,1.665-1.306-3.569-1.306-3.569
			c4.53-2.683,3.552-6.293,1.913-9.456L357.083,190.014z"/>
		<path style="opacity:0.2;" d="M354.418,193.998l-3.871,5.777c0.391,0.748,0.739,1.521,0.982,2.303
			c1.772-0.848,3.811-3.702,3.546-5.73C354.942,195.336,354.681,194.405,354.418,193.998z"/>
		<g>
			<path style="fill:#EEC1BB;" d="M358.047,180.21c0.877,7.368,1.403,10.46-1.52,15.044c-4.396,6.895-13.435,6.816-16.446-0.031
				c-2.711-6.163-3.69-17.177,2.758-21.726C349.192,169.016,357.17,172.842,358.047,180.21z"/>
			<path style="fill:#263238;" d="M350.486,177.062c5.396,3.749-0.701,11.923,7.081,9.116c7.782-2.807,1.082-12.936-4.395-13.997
				C347.695,171.121,350.486,177.062,350.486,177.062z"/>
			<path style="fill:#263238;" d="M347.39,184.83c0.1,0.615-0.131,1.187-0.517,1.278c-0.386,0.091-0.78-0.335-0.88-0.95
				c-0.1-0.615,0.131-1.187,0.517-1.278C346.895,183.79,347.289,184.215,347.39,184.83z"/>
			<path style="fill:#263238;" d="M340.152,186.643c0.1,0.615-0.131,1.187-0.517,1.278c-0.386,0.091-0.78-0.335-0.88-0.95
				c-0.1-0.615,0.131-1.188,0.517-1.278C339.657,185.602,340.051,186.028,340.152,186.643z"/>
			<path style="fill:#263238;" d="M339.447,185.687l-1.487-0.093C337.961,185.594,338.876,186.577,339.447,185.687z"/>
			<path style="fill:#D4827D;" d="M342.339,187.177c0,0-0.569,2.884-1.462,4.421c0.903,0.575,2.171-0.082,2.171-0.082
				L342.339,187.177z"/>
			<path style="fill:#263238;" d="M347.461,179.981c-0.09,0.03-0.189,0.023-0.275-0.028c-1.333-0.794-2.509-0.165-2.523-0.157
				c-0.174,0.094-0.385,0.029-0.468-0.152c-0.082-0.18-0.007-0.404,0.169-0.502c0.061-0.033,1.538-0.824,3.192,0.161
				c0.165,0.098,0.216,0.324,0.114,0.503C347.621,179.893,347.545,179.953,347.461,179.981z"/>
			<path style="fill:#263238;" d="M337.492,183.764c-0.084,0.033-0.177,0.035-0.262-0.002c-0.175-0.078-0.249-0.294-0.164-0.482
				c0.85-1.887,2.463-2.223,2.532-2.236c0.193-0.038,0.37,0.093,0.395,0.294c0.025,0.2-0.112,0.392-0.304,0.431
				c-0.063,0.012-1.312,0.292-1.987,1.792C337.658,183.658,337.581,183.728,337.492,183.764z"/>
			<path style="fill:#263238;" d="M346.686,183.874l-1.487-0.093C345.199,183.781,346.114,184.765,346.686,183.874z"/>
			<path style="fill:#263238;" d="M346.582,174.051c0,0,3.941,7.772,9.821,7.434c5.879-0.339-1.622-8.755-1.622-8.755
				s-2.54-4.084-9.9-1.773c-7.36,2.311-13.504,12.454-7.771,22.459c0,0-1.531-3.46-0.787-6.799
				C337.066,183.28,339.509,185.187,346.582,174.051z"/>
			<path style="fill:#263238;" d="M350.885,170.422c8.757,0.668,13.188,4.875,14.305,10.744c1.117,5.869-3.984,14.053-5.049,14.621
				l-3.34,1.593c0,0,3.031-9.168,1.198-11.378c-1.832-2.21-2.949-2.134-2.949-2.134L350.885,170.422z"/>
			<path style="fill:#EEC1BB;" d="M360.83,186.707c-0.265,1.651-1.158,2.897-2.145,3.521c-1.484,0.938-2.77-0.698-2.813-2.721
				c-0.039-1.821,0.687-4.504,2.396-4.597C359.951,182.818,361.133,184.82,360.83,186.707z"/>
			<g>
				<path style="fill:#263238;" d="M344.484,193.127c1.095,0.698,2.742,2.267,2.742,2.267c0.169-0.124,0.338-0.247,0.5-0.38
					c2.25-1.734,2.721-3.282,2.56-4.472c-0.09-0.651-0.379-1.196-0.666-1.601c-0.327-0.472-0.668-0.733-0.668-0.733
					c-0.643,1.632-2.616,3.41-3.71,4.316C344.788,192.908,344.484,193.127,344.484,193.127z"/>
				<path style="fill:#FFFFFF;" d="M345.242,192.523l0.826,0.647c2.115-1.639,3.385-3.076,3.553-4.23
					c-0.327-0.472-0.668-0.733-0.668-0.733C348.309,189.839,346.336,191.618,345.242,192.523z"/>
				<path style="fill:#DE5753;" d="M347.727,195.014c2.25-1.734,2.721-3.282,2.56-4.472c-0.744,0.62-1.572,1.452-2.117,2.421
					C347.751,193.702,347.671,194.406,347.727,195.014z"/>
			</g>
		</g>
		<g>
			<path style="fill:#263238;" d="M397.6,269.185l-10.13,4.11c0,0-15.72-22.22-20.47-31.68c-0.33-0.64-0.6-1.22-0.81-1.73
				c-0.3-0.73-0.59-1.58-0.86-2.51c0-0.01,0-0.01,0-0.01c-0.56-2-1.02-4.4-1.38-7.01c-1.29-9.64-1.02-22.02,1.65-26.7
				c0,0,3.61-0.46,4.95-0.48c1.2-0.03,5.23,0.26,5.23,0.26c-0.4,2.54-0.22,7,0.23,12.06c0.42,4.65,1.07,9.82,1.72,14.48
				c1.1,7.84,2.21,14.22,2.21,14.22C390.23,254.505,397.6,269.185,397.6,269.185z"/>
			<path style="opacity:0.2;fill:#FFFFFF;" d="M397.6,269.185l-10.13,4.11c0,0-15.72-22.22-20.47-31.68
				c-0.33-0.64-0.6-1.22-0.81-1.73c-0.3-0.73-0.59-1.58-0.86-2.51c0-0.01,0-0.01,0-0.01c-0.56-2-1.02-4.4-1.38-7.01
				c-1.29-9.64-1.02-22.02,1.65-26.7c0,0,3.61-0.46,4.95-0.48c1.2-0.03,5.23,0.26,5.23,0.26c-0.4,2.54-0.22,7,0.23,12.06
				c0.42,4.65,1.07,9.82,1.72,14.48c1.1,7.84,2.21,14.22,2.21,14.22C390.23,254.505,397.6,269.185,397.6,269.185z"/>
			<path style="fill:#263238;" d="M363.62,216.635l3.26,4.05l-0.29,3.64l-1.08,13.38c0,0-0.06-0.11-0.18-0.33c0-0.01,0-0.01,0-0.01
				c-0.43-0.82-1.52-3.08-2.46-6.29c-1.92-6.51-3.24-16.96,2.73-27.42c0,0,1.01,4.1,2.76,12.98H363.62z"/>
			<path style="opacity:0.2;" d="M377.73,229.975c-1.58,3.73-3.49,7.86-4.62,8.96c-1.42,1.38-4.28,2.25-6.11,2.68
				c-0.33-0.64-0.6-1.22-0.81-1.73c-0.3-0.73-0.59-1.58-0.86-2.51c0-0.01,0-0.01,0-0.01c-0.43-0.82-1.52-3.08-2.46-6.29
				c0.32-0.21,0.67-0.44,1.04-0.69c0.01-0.01,0.02-0.02,0.04-0.03c0.65-0.5,1.63-3.01,2.64-6.03c1.78-5.38,3.61-12.36,3.61-12.36
				c2.36,0.37,4.3,1.8,5.81,3.53C376.43,220.145,377.08,225.315,377.73,229.975z"/>
		</g>
		<g>
			<path style="fill:#263238;" d="M352.46,250.885l-2.79,27.44l-4.15,1.3l3.63-27.7c0,0-0.76-1.3-1.89-3.52
				c-1.1-2.15-2.54-5.16-3.98-8.7c-2.88-7.1-5.72-16.31-5.67-24.88c0,0,2.82-2.4,6.5-3.87c0,0,0.01-0.02,0.02-0.02
				c0.44-0.18,0.9-0.34,1.36-0.49c0,0-2.02,8.87,2.97,27.67c0.06,0.23,0.12,0.48,0.19,0.72c0.01,0.06,0.02,0.1,0.02,0.1
				c0.68,2.48,1.47,5.13,2.41,7.96C351.51,248.185,351.97,249.516,352.46,250.885z"/>
			<path style="opacity:0.2;fill:#FFFFFF;" d="M352.46,250.885l-2.79,27.44l-4.15,1.3l3.63-27.7c0,0-0.76-1.3-1.89-3.52
				c-1.1-2.15-2.54-5.16-3.98-8.7c-2.88-7.1-5.72-16.31-5.67-24.88c0,0,2.82-2.4,6.5-3.87c0,0,0.01-0.02,0.02-0.02
				c0.44-0.18,0.9-0.34,1.36-0.49c0,0-2.02,8.87,2.97,27.67c0.06,0.23,0.12,0.48,0.19,0.72c0.01,0.06,0.02,0.1,0.02,0.1
				c0.68,2.48,1.47,5.13,2.41,7.96C351.51,248.185,351.97,249.516,352.46,250.885z"/>
			<path style="fill:#263238;" d="M348.67,238.935l-0.41-0.75l-6.71-12.35l1.54-3.04l-3.3,3.59c0,0,1.63-13.29,3.55-14.87
				c0.27-0.22,0.53-0.41,0.77-0.56c0,0,0.01-0.02,0.02-0.02c1.44-0.94,2.27-0.77,2.27-0.77c-2.3,2.4,1.31,23.44,2.12,27.93
				c0.06,0.35,0.11,0.6,0.13,0.74C348.66,238.895,348.67,238.935,348.67,238.935z"/>
			<path style="opacity:0.2;" d="M351.08,246.895c-1.03,0.43-2.49,1.03-3.82,1.51c-1.1-2.15-2.54-5.16-3.98-8.7
				c1.26-0.33,2.97-0.83,4.98-1.52c0.06-0.02,0.13-0.04,0.2-0.07c0.02,0,0.04-0.01,0.06-0.02c0.06,0.35,0.11,0.6,0.13,0.74
				c0.01,0.06,0.02,0.1,0.02,0.1C349.35,241.415,350.14,244.065,351.08,246.895z"/>
		</g>
		<g>
			<path style="fill:#407BFF;" d="M351.556,206.405c0,0-2.932,3.795-1.621,6.4l-5.906,3.586
				C344.03,216.39,345.779,208.719,351.556,206.405z"/>
			<path style="fill:#407BFF;" d="M365.515,210.901l-9.873-0.097c0,0,3.54-5.315,4.369-7.85l3.656,1.294c0,0,0,0,0.013,0.007
				C363.797,204.396,365.358,206.296,365.515,210.901z"/>
			<path style="opacity:0.6;fill:#FFFFFF;" d="M351.556,206.405c0,0-2.932,3.795-1.621,6.4l-5.906,3.586
				C344.03,216.39,345.779,208.719,351.556,206.405z"/>
			<path style="opacity:0.6;fill:#FFFFFF;" d="M365.515,210.901l-9.873-0.097c0,0,3.54-5.315,4.369-7.85l3.656,1.294
				c0,0,0,0,0.013,0.007C363.797,204.396,365.358,206.296,365.515,210.901z"/>
		</g>
		<g>
			<g>
				<path style="fill:#EEC1BB;" d="M347.272,241.519l-7.877-0.116l2.342,7.198c0,0,7.406-1.073,7.536-3.411L347.272,241.519z"/>
				<polygon style="fill:#EEC1BB;" points="334.65,246.615 337.578,251.197 341.738,248.601 339.395,241.403 				"/>
			</g>
			<path style="fill:#263238;" d="M375.782,203.442c8.009,4.993-2.71,33.187-4.848,34.791c-2.139,1.604-21.921,8.441-21.921,8.441
				l-4.361-5.957c0,0,19.399-9.323,20.862-10.22c1.463-0.898,4.965-20.048,4.965-20.048L375.782,203.442z"/>
			<path style="opacity:0.2;fill:#FFFFFF;" d="M375.782,203.442c8.009,4.993-2.71,33.187-4.848,34.791
				c-2.139,1.604-21.921,8.441-21.921,8.441l-4.361-5.957c0,0,19.399-9.323,20.862-10.22c1.463-0.898,4.965-20.048,4.965-20.048
				L375.782,203.442z"/>
		</g>
	</g>
</g>
<g id="Character_1">
	<g>
		<polygon style="fill:#EEC1BB;" points="171.609,412.61 179.491,414.273 187.913,400.428 180.031,398.764 		"/>
		<path style="fill:#263238;" d="M181.081,410.937h-8.822c-0.297,0.001-0.554,0.208-0.619,0.499l-1.432,6.466
			c-0.122,0.579,0.248,1.148,0.827,1.27c0.077,0.016,0.157,0.024,0.236,0.023c2.855-0.046,4.933-0.222,8.517-0.222
			c2.208,0,8.868,0.231,11.916,0.231c3.049,0,3.446-3.012,2.199-3.289c-5.598-1.219-9.81-2.91-11.603-4.517
			C181.968,411.094,181.532,410.928,181.081,410.937z"/>
		<path style="fill:#407BFF;" d="M181.58,411.944c-0.069-0.018-0.12-0.077-0.129-0.148c-0.012-0.068,0.022-0.135,0.083-0.166
			c0.259-0.166,2.605-1.607,3.409-1.192c0.185,0.087,0.301,0.276,0.296,0.48c0.049,0.35-0.088,0.699-0.36,0.924
			c-0.409,0.279-0.902,0.409-1.395,0.37C182.84,412.193,182.202,412.103,181.58,411.944z M182.079,411.703
			c0.848,0.286,1.772,0.24,2.587-0.129c0.174-0.156,0.26-0.387,0.231-0.619c-0.009-0.138-0.065-0.203-0.111-0.203
			c-0.068-0.036-0.145-0.053-0.222-0.046C183.679,410.876,182.836,411.215,182.079,411.703z"/>
		<path style="fill:#407BFF;" d="M181.534,411.98c-0.053-0.035-0.084-0.094-0.083-0.157c0.009-0.101,0.185-2.189,1.025-2.873
			c0.2-0.176,0.466-0.256,0.73-0.222c0.269-0.001,0.501,0.189,0.554,0.453c0.148,0.767-1.302,2.365-2.051,2.771h-0.083
			C181.599,411.971,181.566,411.981,181.534,411.98z M182.697,409.154c-0.511,0.653-0.81,1.445-0.859,2.273
			c0.748-0.564,1.672-1.774,1.58-2.245c-0.009-0.046-0.028-0.176-0.249-0.176h-0.083
			C182.943,409.007,182.805,409.059,182.697,409.154z"/>
		<polygon style="opacity:0.2;enable-background:new    ;" points="180.031,398.764 187.913,400.428 183.564,407.568 
			175.682,405.905 		"/>
		<path style="fill:#263238;" d="M145.563,365.71c0.425-0.018,5.219-0.046,5.663-0.083c8.915-0.739,18.263-3.058,25.459-5.229
			c7.427-2.236,12.563-4.314,12.563-4.314c1.7,9.847-14.281,47.622-14.281,47.622l13.053,0.813c0,0,36.489-53.829,20.942-70.605
			c-11.611-12.526-46.114,1.072-46.114,1.072l-3.227-7.374l-34.882,3.999C124.738,331.611,115.199,367.327,145.563,365.71z"/>
		<path style="opacity:0.2;fill:#FFFFFF;enable-background:new    ;" d="M145.563,365.71c0.425-0.018,5.219-0.046,5.663-0.083
			c8.915-0.739,18.263-3.058,25.459-5.229c7.427-2.236,12.563-4.314,12.563-4.314c1.7,9.847-14.281,47.622-14.281,47.622
			l13.053,0.813c0,0,36.489-53.829,20.942-70.605c-11.611-12.526-46.114,1.072-46.114,1.072l-3.227-7.374l-34.882,3.999
			C124.738,331.611,115.199,367.327,145.563,365.71z"/>
		<polygon style="fill:#407BFF;" points="187.403,406.062 174.394,403.983 175.641,400.444 189.795,403.393 		"/>
		<path style="opacity:0.2;enable-background:new    ;" d="M149.923,365.71c0.425-0.018,0.859-0.046,1.302-0.083
			c8.915-0.739,18.263-3.058,25.459-5.229C164.048,358.08,151.992,349,151.992,349L149.923,365.71z"/>
		<polygon style="fill:#EEC1BB;" points="83.24,397.845 82.559,405.074 99.251,407.248 99.932,400.01 		"/>
		<path style="fill:#263238;" d="M83.302,406.155l0.827-8.783c0.026-0.296-0.156-0.571-0.439-0.663l-6.304-2.031
			c-0.565-0.176-1.166,0.139-1.342,0.704c-0.024,0.076-0.039,0.154-0.045,0.233c-0.221,2.846-0.242,4.932-0.577,8.5
			c-0.207,2.198-1.061,8.807-1.347,11.842c-0.286,3.035,2.675,3.713,3.068,2.497c1.739-5.459,3.817-9.495,5.585-11.128
			C83.062,407.024,83.268,406.605,83.302,406.155z"/>
		<path style="fill:#407BFF;" d="M82.253,406.557c0.025-0.067,0.088-0.113,0.159-0.115c0.068-0.005,0.132,0.035,0.158,0.098
			c0.141,0.273,1.356,2.744,0.867,3.505c-0.104,0.176-0.303,0.274-0.506,0.249c-0.353,0.016-0.688-0.153-0.886-0.445
			c-0.239-0.434-0.323-0.936-0.237-1.423C81.886,407.789,82.036,407.162,82.253,406.557z M82.445,407.077
			c-0.364,0.817-0.405,1.742-0.114,2.587c0.139,0.188,0.361,0.295,0.595,0.288c0.139,0.004,0.208-0.045,0.213-0.091
			c0.043-0.064,0.066-0.139,0.067-0.216C83.118,408.748,82.86,407.876,82.445,407.077z"/>
		<path style="fill:#407BFF;" d="M82.22,406.508c0.039-0.049,0.102-0.075,0.164-0.068c0.1,0.019,2.162,0.389,2.764,1.29
			c0.156,0.215,0.212,0.488,0.152,0.747c-0.024,0.268-0.235,0.482-0.503,0.509c-0.777,0.075-2.232-1.518-2.567-2.301l0.008-0.083
			C82.223,406.574,82.216,406.541,82.22,406.508z M84.925,407.932c-0.602-0.57-1.363-0.942-2.182-1.068
			c0.491,0.798,1.609,1.831,2.087,1.783c0.047-0.005,0.177-0.011,0.198-0.232l0.008-0.083
			C85.049,408.19,85.01,408.047,84.925,407.932z"/>
		<polygon style="opacity:0.2;enable-background:new    ;" points="99.923,400.009 99.242,407.247 90.635,406.122 91.316,398.884 		
			"/>
		<path style="fill:#263238;" d="M154.191,339.993c2.651,3.926,13.944,63.296-2.02,74.609c-11.725,8.308-58.812-5.461-58.812-5.461
			l0.821-12.028c0,0,39.646,4.752,43.341,1.54c3.695-3.212-13.094-43.814-13.978-51.676
			C122.659,339.115,154.191,339.993,154.191,339.993z"/>
		<polygon style="opacity:0.5;fill:#FFFFFF;" points="187.403,406.062 174.394,403.983 175.641,400.444 189.795,403.393 		"/>
		<path style="opacity:0.2;fill:#FFFFFF;enable-background:new    ;" d="M154.191,339.993c2.651,3.926,13.944,63.296-2.02,74.609
			c-11.725,8.308-58.812-5.461-58.812-5.461l0.821-12.028c0,0,39.646,4.752,43.341,1.54c3.695-3.212-13.094-43.814-13.978-51.676
			C122.659,339.115,154.191,339.993,154.191,339.993z"/>
		<polygon style="fill:#407BFF;" points="95.837,396.197 94.868,410.707 91.229,409.789 92.868,395.424 		"/>
		<polygon style="opacity:0.5;fill:#FFFFFF;" points="95.837,396.197 94.868,410.707 91.229,409.789 92.868,395.424 		"/>
		<g>
			<g>
				<path style="fill:#EBC0BB;" d="M142.438,268.804c4.859-0.566,9.76-1.049,14.633-1.524c4.856-0.522,9.781-0.943,14.478-1.544
					c0.97,0.027,2.743-0.996,4.411-2.357c1.673-1.359,3.351-2.979,4.946-4.698c3.202-3.436,6.309-7.233,9.243-11.026l4.025,2.395
					c-2.213,4.617-4.721,8.957-7.758,13.161c-1.542,2.08-3.163,4.147-5.162,6.082c-1.003,0.969-2.074,1.922-3.381,2.807
					l-1.034,0.643c-0.378,0.203-0.768,0.4-1.162,0.591c-0.445,0.175-0.856,0.358-1.341,0.504l-0.752,0.2l-0.354,0.085l-0.236,0.047
					c-2.529,0.52-4.987,0.947-7.456,1.329c-2.464,0.398-4.926,0.748-7.387,1.061c-4.923,0.663-9.828,1.234-14.781,1.655
					L142.438,268.804z"/>
			</g>
			<path style="fill:#407BFF;" d="M139.586,283.405c5.765,3.634,26.694-3.96,26.694-3.96l-3.627-12.882c0,0-9.565-0.49-18.112,1.666
				C135.538,270.501,133.176,279.366,139.586,283.405z"/>
			<path style="opacity:0.2;fill:#FFFFFF;" d="M139.586,283.405c5.765,3.634,26.694-3.96,26.694-3.96l-3.627-12.882
				c0,0-9.565-0.49-18.112,1.666C135.538,270.501,133.176,279.366,139.586,283.405z"/>
			<path style="opacity:0.1;" d="M140.325,283.793c-0.672-3.019,1.101-5.83,6.934-7.733c5.771-1.876,14.981-2.434,17.479-2.097
				l1.542,5.484C166.279,279.447,146.883,286.569,140.325,283.793z"/>
			<g>
				<path style="fill:#EEC1BB;" d="M187.189,251.988l3.45-9.565l7.773,4.313c0,0-1.472,7.025-7.313,7.996L187.189,251.988z"/>
				<polygon style="fill:#EEC1BB;" points="196.004,237.564 201.028,242.167 198.412,246.736 190.639,242.423 				"/>
			</g>
		</g>
		<path style="fill:#407BFF;" d="M147.275,268.263c0,0,12.749,19.274,13.363,60.142c-11.23,2.415-31.807,6.839-37.272,8.014
			c-1.487-5.666-3.893-34.349-15.208-60.121c0,0,6.113-2.656,12.138-4.258c4.713-1.254,11.575-2.888,15.844-3.406
			C141.768,267.951,147.275,268.263,147.275,268.263z"/>
		<path style="opacity:0.2;fill:#FFFFFF;" d="M160.643,328.409c-11.233,2.413-31.817,6.838-37.273,8.007
			c-0.933-3.542-2.227-16.117-5.838-31.355c-0.961-4.065-2.094-8.327-3.43-12.648c-1.653-5.337-3.609-10.787-5.943-16.116
			c0,0,6.113-2.655,12.136-4.254c4.715-1.261,11.575-2.89,15.851-3.415c5.618-0.677,11.131-0.369,11.131-0.369
			S160.023,287.537,160.643,328.409z"/>
		<path style="fill:#EEC1BB;" d="M120.042,253.443c1.806,4.997,4.271,14.284,1.196,18.279c5.261,1.336,9.043,2.202,13.812,5.319
			c1-3.395,2.204-7.79,2.204-7.79c-5.958-0.485-6.468-4.772-6.085-8.93L120.042,253.443z"/>
		<path style="opacity:0.2;" d="M124.579,256.25l6.585,4.067c-0.094,0.985-0.132,1.974-0.055,2.919
			c-2.244,0.022-5.632-1.923-6.22-4.186C124.597,257.922,124.475,256.813,124.579,256.25z"/>
		<polygon style="fill:#263238;" points="115.67,273.445 118.507,269.311 128.788,270.515 134.367,276.032 134.513,269.179 
			136.247,266.757 140.539,268.25 140.852,272.508 137.821,271.763 135.694,277.895 127.356,275.164 125.724,277.589 		"/>
		<polygon style="opacity:0.3;fill:#FFFFFF;" points="115.67,273.445 118.507,269.311 128.788,270.515 134.367,276.032 
			134.513,269.179 136.247,266.757 140.539,268.25 140.852,272.508 137.821,271.763 135.694,277.895 127.356,275.164 
			125.724,277.589 		"/>
		<polygon style="opacity:0.1;" points="135.694,277.895 136.152,270.709 140.852,272.508 137.821,271.763 		"/>
		<polygon style="opacity:0.1;" points="135.694,277.895 127.787,272.929 125.724,277.589 127.356,275.164 		"/>
		<path style="opacity:0.1;" d="M117.531,305.061c-0.961-4.065-2.094-8.327-3.43-12.648c1.284-1.659,2.855-2.856,4.636-3.186
			C118.737,289.226,120.504,299.11,117.531,305.061z"/>
		<g>
			<g>
				<path style="fill:#EBC0BB;" d="M114.105,284.163c-0.474,4.358-0.924,8.845-1.266,13.239c-0.183,2.201-0.312,4.399-0.405,6.563
					c-0.094,2.159-0.101,4.312,0.013,6.281c0.029,0.493,0.076,0.956,0.126,1.406c0.052,0.412,0.14,0.878,0.185,1.1
					c-0.03-0.051-0.17-0.228-0.287-0.305c-0.125-0.081-0.164-0.031-0.036,0.048c0.242,0.175,1.012,0.348,1.851,0.384
					c0.854,0.051,1.828,0.019,2.825-0.081c4.021-0.415,8.426-1.514,12.614-2.671l1.919,4.272c-4.143,2.406-8.341,4.383-13.246,5.64
					c-1.236,0.295-2.518,0.552-3.933,0.655c-1.419,0.076-2.957,0.103-4.856-0.501c-0.935-0.309-1.99-0.817-2.931-1.69
					c-0.951-0.849-1.675-2.041-2.052-3.169c-0.283-0.864-0.43-1.509-0.58-2.213c-0.129-0.67-0.24-1.33-0.324-1.966
					c-0.339-2.546-0.408-4.937-0.445-7.313c-0.032-2.373,0.053-4.708,0.151-7.034c0.243-4.66,0.66-9.209,1.295-13.855
					L114.105,284.163z"/>
			</g>
			<path style="fill:#407BFF;" d="M108.158,276.298c-9.799,4.986-7.38,29.064-7.38,29.064l13.839-0.051
				c0,0,3.679-10.331,5.019-19.036C121.039,277.153,114.672,272.984,108.158,276.298z"/>
			<path style="opacity:0.2;fill:#FFFFFF;" d="M108.158,276.298c-9.799,4.986-7.38,29.064-7.38,29.064l13.839-0.051
				c0,0,3.679-10.331,5.019-19.036C121.039,277.153,114.672,272.984,108.158,276.298z"/>
			<path style="fill:#EEC1BB;" d="M126.862,310.83l7.26-7.119l5.13,7.26c0,0-4.376,5.69-10.059,4.028L126.862,310.83z"/>
			<polygon style="fill:#EEC1BB;" points="141.064,301.663 143.592,307.99 139.252,310.971 134.122,303.711 			"/>
		</g>
		<g>
			<path style="fill:#263238;" d="M132.52,233.722c3.711,1.204,6.787,10.937,2.527,13.578
				C130.787,249.941,125.491,231.442,132.52,233.722z"/>
			<path style="fill:#EEC1BB;" d="M117.597,246.283c2.292,6.801,3.285,10.886,7.756,13.608c6.725,4.095,14.458-1.069,14.257-8.344
				c-0.181-6.549-3.898-16.571-11.45-17.728C120.72,232.678,115.305,239.482,117.597,246.283z"/>
			<path style="fill:#263238;" d="M124.242,237.006l-1.132-6.047c-13.952-2.849-18.307,10.993-11.521,18.309
				c3.558,3.835,7.254,5.28,9.351,3.133c1.954-1.268,1.424-8.498,0.414-11.079C119.831,237.433,124.242,237.006,124.242,237.006z"/>
			<path style="fill:#EEC1BB;" d="M116.8,253.735c1.413,1.359,3.227,2.051,4.716,2.138c2.24,0.13,2.508-1.961,1.172-3.803
				c-1.202-1.659-3.817-3.725-5.722-2.987C115.09,249.809,115.185,252.181,116.8,253.735z"/>
			<path style="fill:#263238;" d="M128.67,245.749c0.152,0.562,0.575,0.948,0.945,0.861c0.37-0.086,0.547-0.612,0.396-1.174
				c-0.152-0.562-0.575-0.947-0.945-0.861C128.696,244.662,128.518,245.188,128.67,245.749z"/>
			<path style="fill:#263238;" d="M135.073,244.256c0.152,0.562,0.575,0.947,0.945,0.861c0.37-0.086,0.547-0.612,0.396-1.174
				c-0.152-0.562-0.575-0.947-0.945-0.861C135.098,243.169,134.921,243.694,135.073,244.256z"/>
			<path style="fill:#D4827D;" d="M133.113,245.01c0,0,2.164,2.941,4.004,4.174c-0.751,1.162-2.57,1.135-2.57,1.135L133.113,245.01z
				"/>
			<path style="fill:#263238;" d="M126.136,244.161c-0.056,0.006-0.114-0.001-0.169-0.024c-0.174-0.073-0.256-0.273-0.183-0.447
				c0.72-1.723,2.282-1.992,2.348-2.002c0.173-0.046,0.361,0.096,0.391,0.283c0.03,0.186-0.097,0.361-0.282,0.391
				c-0.065,0.011-1.261,0.238-1.826,1.591C126.364,244.072,126.255,244.148,126.136,244.161z"/>
			<path style="fill:#263238;" d="M137.236,241.43c-0.109,0.012-0.221-0.028-0.297-0.117c-1.011-1.179-2.277-1.061-2.29-1.06
				c-0.188,0.02-0.356-0.116-0.376-0.304c-0.02-0.187,0.115-0.354,0.302-0.375c0,0,0.001,0,0.002,0
				c0.067-0.007,1.638-0.154,2.88,1.294c0.123,0.143,0.106,0.359-0.037,0.482C137.366,241.396,137.301,241.422,137.236,241.43z"/>
			<path style="fill:#263238;" d="M112.695,234.066c-1.039,4.355,10.44,7.377,18.284,4.15c0,0-1.626-0.059-2.399-0.533
				c0,0,7.239-0.694,8.537-6.107l-1.217,1.05c0,0,1.052-4.48-1.577-6.822l-0.146,1.448c0,0-3.583-3.083-7.747-1.253l1.644,0.488
				C128.075,226.487,114.521,226.414,112.695,234.066z"/>
			<g>
				<path style="fill:#263238;" d="M136.087,252.171c0,0-2.32-0.497-8.813-0.401c0.79,1.94,2.233,3.512,5.558,3.431
					C136.157,255.121,136.087,252.171,136.087,252.171z"/>
				<path style="fill:#A02724;" d="M131.267,253.691c1.604-0.039,2.77,0.309,3.636,0.889c-0.467,0.35-1.139,0.596-2.069,0.618
					c-1.604,0.039-2.762-0.301-3.629-0.889C129.673,253.959,130.338,253.713,131.267,253.691z"/>
				<path style="fill:#FFFFFF;" d="M135.791,252.12c-0.178,0.419-0.354,0.838-1.003,0.983c-1.352,0.112-4.82-0.221-5.753-0.401
					c-0.597-0.089-1.108-0.284-1.481-0.936C132.555,251.704,135.002,251.998,135.791,252.12z"/>
			</g>
		</g>
	</g>
</g>
<g id="Lightbulb">
	<g>
		<g>
			<path style="fill:#263238;" d="M208.598,241.782c-0.038,3.324-4.629,5.967-10.254,5.903c-5.625-0.064-10.155-2.81-10.117-6.134
				c0.038-3.324,4.629-5.967,10.254-5.903C204.106,235.712,208.636,238.458,208.598,241.782z"/>
			<path style="fill:#263238;" d="M212.975,230.8c0.589-0.615,0.93-1.277,0.938-1.975c0.037-3.264-6.873-5.988-15.434-6.085
				c-8.561-0.097-15.531,2.47-15.568,5.733c-0.008,0.697,0.318,1.367,0.893,1.995c-0.169,0.336-0.27,0.682-0.274,1.039
				c-0.008,0.69,0.325,1.352,0.91,1.97c-0.185,0.343-0.287,0.699-0.291,1.064c-0.008,0.686,0.333,1.343,0.936,1.954
				c-0.2,0.348-0.313,0.709-0.317,1.081c-0.008,0.683,0.341,1.337,0.966,1.941c-0.216,0.351-0.342,0.716-0.347,1.094
				c-0.031,2.713,5.714,4.978,12.831,5.059c7.118,0.081,12.912-2.053,12.943-4.767c0.004-0.378-0.114-0.746-0.322-1.101
				c0.638-0.589,1.002-1.236,1.01-1.918c0.004-0.372-0.1-0.736-0.293-1.088c0.617-0.597,0.973-1.246,0.98-1.932
				c0.004-0.366-0.09-0.723-0.267-1.071c0.6-0.605,0.947-1.259,0.955-1.949C213.23,231.488,213.137,231.14,212.975,230.8z"/>
			<path style="opacity:0.3;fill:#FFFFFF;" d="M212.975,230.8c0.589-0.615,0.93-1.277,0.938-1.975
				c0.037-3.264-6.873-5.988-15.434-6.085c-8.561-0.097-15.531,2.47-15.568,5.733c-0.008,0.697,0.318,1.367,0.893,1.995
				c-0.169,0.336-0.27,0.682-0.274,1.039c-0.008,0.69,0.325,1.352,0.91,1.97c-0.185,0.343-0.287,0.699-0.291,1.064
				c-0.008,0.686,0.333,1.343,0.936,1.954c-0.2,0.348-0.313,0.709-0.317,1.081c-0.008,0.683,0.341,1.337,0.966,1.941
				c-0.216,0.351-0.342,0.716-0.347,1.094c-0.031,2.713,5.714,4.978,12.831,5.059c7.118,0.081,12.912-2.053,12.943-4.767
				c0.004-0.378-0.114-0.746-0.322-1.101c0.638-0.589,1.002-1.236,1.01-1.918c0.004-0.372-0.1-0.736-0.293-1.088
				c0.617-0.597,0.973-1.246,0.98-1.932c0.004-0.366-0.09-0.723-0.267-1.071c0.6-0.605,0.947-1.259,0.955-1.949
				C213.23,231.488,213.137,231.14,212.975,230.8z"/>
			<path style="fill:#407BFF;" d="M225.844,201.977c0.179-15.794-13.024-28.622-29.067-27.698
				c-13.841,0.797-25.044,12.095-25.76,25.941c-0.465,8.999,3.424,17.127,9.761,22.452c1.15,0.966,1.783,2.422,1.619,3.915
				c-0.008,0.073-0.013,0.146-0.013,0.22c-0.037,3.314,6.98,6.081,15.673,6.18c8.694,0.099,15.772-2.508,15.809-5.822
				c0.001-0.071-0.002-0.143-0.008-0.213c-0.127-1.514,0.559-2.96,1.742-3.912C221.764,218.078,225.747,210.507,225.844,201.977z"/>
			<path style="opacity:0.7;fill:#FFFFFF;" d="M225.844,201.977c0.179-15.794-13.024-28.622-29.067-27.698
				c-13.841,0.797-25.044,12.095-25.76,25.941c-0.465,8.999,3.424,17.127,9.761,22.452c1.15,0.966,1.783,2.422,1.619,3.915
				c-0.008,0.073-0.013,0.146-0.013,0.22c-0.037,3.314,6.98,6.081,15.673,6.18c8.694,0.099,15.772-2.508,15.809-5.822
				c0.001-0.071-0.002-0.143-0.008-0.213c-0.127-1.514,0.559-2.96,1.742-3.912C221.764,218.078,225.747,210.507,225.844,201.977z"/>
			
				<path style="fill:none;stroke:#263238;stroke-width:0.4788;stroke-linecap:round;stroke-linejoin:round;stroke-miterlimit:10;" d="
				M202.988,228.228c0,0,2.063-13.446,9.054-17.423l-5.163-0.059l-1.607-3.9l-3.488,7.08l-3.326-7.157l-3.479,6.235l-3.336-6.313
				l-1.696,3.863l-5.163-0.059c0,0,7.901,7.594,7.788,17.614"/>
			<path style="opacity:0.2;fill:#FFFFFF;" d="M212.373,186.066c0,5.348-6.25,9.684-13.96,9.684s-13.96-4.336-13.96-9.684
				c0-5.349,6.25-9.684,13.96-9.684S212.373,180.717,212.373,186.066z"/>
			<path style="opacity:0.2;fill:#FFFFFF;" d="M208.598,216.83c0,3.902-4.56,7.066-10.186,7.066s-10.186-3.163-10.186-7.066
				c0-3.902,4.56-7.066,10.186-7.066S208.598,212.928,208.598,216.83z"/>
		</g>
		<path style="fill:#407BFF;" d="M178.67,173.069c5.538-6.593,26.572-11.031,38.176-0.594c0,0-3.956-6.178,0-11.453
			c0,0-5.275,3.428-10.022,0c-4.747-3.429-5.797-20.572-5.797-20.572s-1.111,17.407-8.866,18.989
			c-7.755,1.582-12.766-9.495-12.766-9.495s4.22,12.112,2.11,13.968c-2.11,1.856-6.33,0-6.33,0L178.67,173.069z"/>
		<path style="fill:#407BFF;" d="M166.279,185.088c0,0-7.644,14.835,0,28.088c0,0-4.62-3.363-10.752-1.187
			c0,0,2.967-3.165,2.571-6.527c-0.396-3.363-14.242-8.11-14.242-8.11s10.879,0.989,13.253-2.769
			c2.374-3.758-5.989-11.077-5.989-11.077s9.154,4.945,11.132,3.363c1.978-1.582,0-6.527,0-6.527L166.279,185.088z"/>
		<path style="fill:#407BFF;" d="M228.121,215.63c0,0,7.714-10.702,1.582-26.951l5.341-3.18c0,0-1.978,3.393-0.791,5.546
			c1.187,2.154,12.462,0.658,12.462,0.658s-8.901,1.784-9.297,6.486c-0.396,4.702,11.077,11.577,11.077,11.577
			s-10.484-2.62-12.659,0c-2.176,2.62,2.472,7.696,2.472,7.696S233.066,213.732,228.121,215.63z"/>
	</g>
</g>
<g id="Box">
	<g>
		<rect x="167.533" y="332.045" style="fill:#407BFF;" width="100.742" height="87.159"/>
		<rect x="167.533" y="332.045" style="opacity:0.7;fill:#FFFFFF;" width="100.742" height="87.159"/>
		<path style="opacity:0.5;" d="M192.035,411.931c1.867-0.246,3.323-2.039,3.351-4.25h-3.303l-0.476,1.04h0.317l-1.187,1.983
			l0.659-1.698h-0.494l0.471-1.325h-3.545c0.028,2.211,1.484,4.004,3.351,4.25v3.139l-1.912,1.001v0.577h1.912h0.857h1.912v-0.577
			l-1.912-1.001V411.931z"/>
		<rect x="169.505" y="407.568" style="opacity:0.5;" width="8.804" height="8.804"/>
		<rect x="252.714" y="406.062" style="opacity:0.5;" width="12.264" height="10.176"/>
		<rect x="204.319" y="338.253" style="opacity:0.5;" width="14.505" height="9.231"/>
		<rect x="167.533" y="332.045" style="opacity:0.1;" width="33.495" height="87.159"/>
		<polygon style="fill:#407BFF;" points="184.207,354.011 150.712,354.011 167.533,332.045 201.028,332.045 		"/>
		<polygon style="opacity:0.1;" points="201.028,332.045 185.248,357.355 167.533,364.099 167.533,332.045 		"/>
		<polygon style="fill:#407BFF;" points="216.775,352.033 284.022,352.033 268.275,332.045 201.028,332.045 		"/>
		<polygon style="opacity:0.6;fill:#FFFFFF;" points="184.207,354.011 150.712,354.011 167.533,332.045 201.028,332.045 		"/>
		<polygon style="opacity:0.6;fill:#FFFFFF;" points="216.775,352.033 284.022,352.033 268.275,332.045 201.028,332.045 		"/>
	</g>
</g>
</svg>
